<?xml version="1.0" encoding="UTF-8" standalone="no"?>
<svg
   xmlns:dc="http://purl.org/dc/elements/1.1/"
   xmlns:cc="http://creativecommons.org/ns#"
   xmlns:rdf="http://www.w3.org/1999/02/22-rdf-syntax-ns#"
   xmlns:svg="http://www.w3.org/2000/svg"
   xmlns="http://www.w3.org/2000/svg"
   xmlns:sodipodi="http://sodipodi.sourceforge.net/DTD/sodipodi-0.dtd"
   xmlns:inkscape="http://www.inkscape.org/namespaces/inkscape"
   width="290"
   height="102"
   viewBox="0 0 290 102"
   fill="none"
   version="1.1"
   id="svg6"
   sodipodi:docname="logo.svg"
   inkscape:version="0.92.4 5da689c313, 2019-01-14">
  <metadata
     id="metadata12">
    <rdf:RDF>
      <cc:Work
         rdf:about="">
        <dc:format>image/svg+xml</dc:format>
        <dc:type
           rdf:resource="http://purl.org/dc/dcmitype/StillImage" />
        <dc:title></dc:title>
      </cc:Work>
    </rdf:RDF>
  </metadata>
  <defs
     id="defs10" />
  <sodipodi:namedview
     pagecolor="#ffffff"
     bordercolor="#666666"
     borderopacity="1"
     objecttolerance="10"
     gridtolerance="10"
     guidetolerance="10"
     inkscape:pageopacity="0"
     inkscape:pageshadow="2"
     inkscape:window-width="755"
     inkscape:window-height="480"
     id="namedview8"
     showgrid="false"
     inkscape:zoom="0.89655172"
     inkscape:cx="145"
     inkscape:cy="51"
     inkscape:window-x="0"
     inkscape:window-y="209"
     inkscape:window-maximized="0"
     inkscape:current-layer="svg6" />
  <path
     d="M15.6486 12.0587C15.5107 12.0497 15.3633 12.0594 15.2072 12.086H15.1115L15.0881 12.1778C14.3417 14.9511 15.2341 18.0302 15.0568 20.8595V20.8712L15.0588 20.8829C15.1206 21.3377 15.1761 22.5901 15.1408 23.3087C15.1362 23.4032 15.1251 23.453 15.1174 23.5255C15.0647 23.3437 15.0005 23.0659 14.9259 22.6759C14.3121 19.5744 14.2607 16.3286 13.799 13.2188L13.7775 13.0724L13.6369 13.1192C12.974 13.3377 12.5856 13.7975 12.4045 14.3712C12.2234 14.9449 12.2356 15.6305 12.3244 16.3497C12.502 17.7882 12.997 19.3767 13.0295 20.3966V20.4063L13.0314 20.4161C14.1702 26.2382 15.372 32.0598 16.6408 37.8497C15.3034 34.1106 14.2401 30.2696 13.0939 26.461L13.09 26.4493L13.0841 26.4396C12.5288 25.389 12.3113 23.7712 11.9728 22.3048C11.8036 21.5716 11.6032 20.874 11.3029 20.2989C11.0026 19.7239 10.5971 19.2672 10.0256 19.0411L9.86735 18.9786L9.85563 19.1466C9.64933 21.8853 11.1391 24.6205 11.7521 27.2501L11.7541 27.256L11.756 27.2599C14.9529 37.021 17.5601 47.0014 21.8791 56.4161C21.9214 56.6439 22.0435 56.9165 22.1916 57.211C22.3463 57.5187 22.5253 57.8409 22.6564 58.1075C22.722 58.2408 22.7767 58.3607 22.8088 58.4532C22.8312 58.518 22.8296 58.5383 22.8322 58.5626C22.7801 58.548 22.6807 58.5018 22.547 58.42C18.161 52.0382 15.9041 44.6652 12.9611 37.629L12.9572 37.6212C11.6923 33.7957 9.75886 30.1528 8.9611 26.2481C8.97491 25.9927 8.95048 25.7958 8.88102 25.6485C8.80881 25.4954 8.67629 25.3967 8.53141 25.379C8.24167 25.3437 7.94883 25.5508 7.70524 25.8419C7.46166 26.133 7.26919 26.527 7.24626 26.9415C7.22403 27.3432 7.38039 27.7646 7.79313 28.0782C10.4585 35.3057 13.2865 42.4725 16.2736 49.5899L16.2756 49.5978L16.2795 49.6036C18.5637 53.7277 19.9803 57.9886 22.7209 61.0372C22.1766 60.499 21.5961 59.8028 21.0099 58.9122C20.3061 57.8428 19.6235 56.7015 19.0568 55.9063L19.0529 55.9005C14.9315 49.3447 11.5778 42.4279 8.31852 35.4884L8.30876 35.4669L8.28923 35.4493C7.9174 35.1153 7.63534 34.9067 7.41227 34.795C7.30074 34.7392 7.20333 34.7058 7.10954 34.7013C7.01575 34.6968 6.91923 34.7288 6.85759 34.795C6.73431 34.9274 6.73984 35.1148 6.77165 35.336C6.80346 35.5572 6.87677 35.824 6.97868 36.1173C7.38535 37.2876 8.22236 38.8867 8.5236 39.4103C8.52423 39.4116 8.52493 39.4129 8.52556 39.4142C8.52592 39.4148 8.52715 39.4175 8.52751 39.4181C11.517 45.5979 14.9026 51.6198 18.465 57.5274H18.467V57.5294C20.435 60.604 22.8289 63.4424 25.047 66.3302L25.0295 66.2989C25.0865 66.4428 25.2253 66.5661 25.3185 66.7032C24.8183 66.3829 24.3174 66.0649 23.8263 65.7286C23.8251 65.7278 23.8236 65.7276 23.8224 65.7267C22.5361 64.5953 21.3752 63.2726 19.9943 62.1427L19.9904 62.1407L19.9865 62.1368C18.0849 60.8006 16.7656 59.0485 15.1896 57.4435L15.1818 57.4356C14.1218 56.1268 13.1192 54.7798 12.0256 53.4786L12.0216 53.4728L12.0138 53.4669C10.9438 52.5016 10.2952 51.2766 9.37126 50.1407C9.37033 50.1396 9.37024 50.1379 9.36931 50.1368C8.76586 49.0572 8.3136 47.8977 7.36149 46.9864L7.31462 46.9435L7.25212 46.9552C7.08019 46.9865 6.94161 47.0546 6.84391 47.1583C6.74622 47.262 6.69518 47.3958 6.6779 47.5372C6.64333 47.82 6.73197 48.1451 6.87126 48.4786C7.14749 49.1401 7.63061 49.8295 7.91032 50.1681C7.91266 50.1718 7.91579 50.174 7.91813 50.1778C7.91874 50.1786 7.91949 50.181 7.92009 50.1817C8.78461 51.5606 9.73008 52.6305 10.674 53.8927C11.7461 55.8032 13.4477 57.414 14.756 59.172L14.7638 59.1837L14.7736 59.1935C16.3141 60.5191 17.6903 61.9776 19.2287 63.3243C20.1124 64.2444 21.1292 65.1275 22.1486 65.9923C22.1503 65.9943 22.1528 65.9961 22.1545 65.9981C22.157 66.0002 22.1598 66.0018 22.1623 66.004C22.943 66.8958 24.216 67.5158 25.0939 68.3478L25.1017 68.3556L25.1095 68.3614C26.5977 69.3495 28.1285 70.4342 29.9806 70.9845L30.0295 70.9981L30.0724 70.9767C30.3686 70.8261 30.575 70.678 30.7072 70.5196C30.8394 70.3612 30.8948 70.1832 30.8654 70.0157C30.8065 69.6807 30.4801 69.432 30.0724 69.2032C29.3066 68.7734 28.221 68.4406 27.6213 68.1856C27.7891 68.1731 27.9518 68.1312 28.0666 68.0138C28.1938 67.8835 28.2605 67.6903 28.2638 67.4474C28.2671 67.2044 28.2096 66.9052 28.0822 66.5353L28.0802 66.5294L28.0763 66.5235C27.844 66.0284 27.3981 65.3009 27.1799 64.8731C27.3077 64.9927 27.4793 65.1649 27.7033 65.4024L27.7131 65.4122L27.7267 65.42C28.6452 66.031 30.1301 66.493 31.4572 66.4767C32.1207 66.4685 32.7463 66.3399 33.2384 66.0353C33.721 65.7365 34.064 65.2583 34.1681 64.5938C34.6143 63.781 35.3293 63.3618 35.9904 63.0411C36.3108 62.8857 36.829 62.5684 37.0881 62.1739C37.1755 62.1126 37.2632 62.0546 37.3478 61.9825C38.9894 60.5849 40.5241 58.9902 42.0783 57.5724C43.2814 56.4748 45.2732 55.0856 46.9416 53.9845C48.4688 52.5637 50.391 50.8952 51.7248 49.9845C53.0586 49.0738 53.8013 48.9694 54.7541 48.3224C55.831 47.591 56.4865 45.9084 57.7619 45.8321C57.9521 43.8168 58.498 42.1641 59.09 40.3946C59.7115 38.5371 60.1774 36.4081 61.4123 34.9962C61.8939 34.4013 62.4582 33.6646 62.6408 33.004C62.6761 32.885 62.633 32.7226 62.5978 32.5646C62.5689 32.427 62.5457 32.2838 62.4924 32.1798C62.2447 31.1525 61.2099 30.4458 60.8127 29.5392C60.7685 29.3769 60.5938 29.2032 60.5099 29.0235C60.1373 28.2255 58.9682 27.2172 59.1818 26.5978C59.254 26.4701 60.0506 26.0516 59.2013 25.2501C58.9166 24.9813 59.3723 24.8227 59.5021 24.9278C60.222 25.5105 61.1092 25.3846 60.9377 25.0899C60.3933 24.1546 60.9952 23.8913 61.8537 24.629C62.1825 24.5239 61.5843 23.9429 61.8927 23.8517C63.2075 25.0055 64.9844 26.6602 65.2443 28.4278C65.2757 28.5028 65.308 28.5767 65.3361 28.6563C65.5068 29.6563 65.8805 30.278 66.8888 30.6896C66.9225 30.7052 66.9556 30.7155 66.9904 30.7228C67.7519 30.0581 68.3494 30.0565 69.4572 31.0938C71.9289 33.4082 75.5394 34.352 77.7092 36.9571C79.487 38.8215 80.9503 41.7066 79.4045 42.7403C77.2272 43.472 75.4651 44.2926 73.5431 45.1778C72.1144 45.8359 71.1242 46.4465 69.3341 47.3126C67.9962 48.4637 66.0094 49.6524 66.0158 51.3927C65.9471 52.0772 65.8185 52.8367 65.7463 53.4161C65.6771 54.4131 65.5593 55.7382 65.549 57.131C65.5406 58.2591 65.8031 59.3322 65.8107 60.0157C65.814 60.3134 65.7686 61.111 65.6017 61.8282C65.5183 62.1868 65.439 62.5298 65.4142 62.9044C65.4018 63.0917 65.3944 63.289 65.4631 63.5528C65.5317 63.8167 65.7441 64.2138 66.1427 64.4122C67.083 64.8938 67.5379 63.8394 67.5959 62.8771C67.6516 61.9515 67.9238 61.0265 67.9181 59.9923C67.9043 58.748 67.6967 57.5071 67.6994 57.1466C67.7091 55.8358 67.7939 54.5607 67.8869 53.629C67.9334 53.1632 67.9827 52.7815 68.0216 52.5372C68.0873 52.3269 68.1122 52.0847 68.1506 51.8927C68.1561 51.8628 68.168 51.8376 68.172 51.8067C68.5223 49.1134 71.8073 48.1144 72.5802 47.7618L77.4142 45.5587C79.2242 44.7332 82.6225 42.9978 81.7209 40.1622C80.3861 35.9644 76.435 33.2911 72.5822 30.9044C70.8269 29.8253 70.7317 28.3787 68.4513 28.4024C66.3767 28.8226 66.5073 25.2399 65.1095 24.0665C63.446 22.67 61.9002 19.7116 59.3361 21.0431C57.0344 18.2228 57.2152 21.7372 58.7463 23.0528C58.1161 23.7491 55.4986 18.1471 54.9767 21.5509C53.9803 19.4431 51.325 20.645 53.3947 22.3282C54.2477 22.9259 57.4199 26.7321 56.6037 26.2911C54.2332 24.4665 52.8709 21.8913 50.9806 19.7325C47.6766 19.2044 51.3002 22.3404 52.049 23.1759C53.3046 25.0986 56.4492 27.1176 56.7873 28.8009C54.3948 26.3872 51.4561 24.2976 49.9318 21.2853C49.1134 20.4053 47.0152 16.6043 47.1896 19.7325C49.8274 23.8663 52.8833 28.0575 56.8927 31.0177C58.8814 32.4859 60.083 32.863 59.0959 35.004C58.2807 37.458 57.3476 40.1074 56.3869 42.5372C55.5545 44.4104 55.3132 45.7035 53.0666 46.8419C50.8715 47.9541 49.4941 49.407 47.5705 50.8478C45.647 52.2886 43.5221 53.983 41.5451 55.5958C40.087 56.7852 38.5514 57.9697 37.1779 59.4161C36.8834 59.7262 36.5998 59.9461 36.3263 60.0978C36.0292 60.2015 35.7468 60.2174 35.4826 60.2325C34.9988 60.2603 34.544 60.0652 34.1037 59.7442C33.2276 59.1056 32.4478 57.9858 31.6896 57.3497C27.1224 52.3137 24.1055 46.2782 21.4142 40.2267C18.7932 34.4987 16.913 28.42 16.6974 22.129V22.1271V22.1251C16.5063 19.4236 16.0941 16.4826 17.2677 13.9864L17.2853 13.9493L17.2775 13.9083C17.1879 13.4387 17.0087 12.9334 16.6759 12.5626C16.4264 12.2845 16.0823 12.0884 15.6486 12.0587ZM56.6115 23.7052C57.0894 23.7983 56.5138 24.1572 56.6115 23.7052V23.7052ZM56.965 24.1896C57.6155 24.5351 57.2256 24.7554 56.965 24.1896V24.1896ZM16.9279 32.6407C18.8817 38.3711 21.2737 43.9882 24.2326 49.3399V49.3419C26.6918 53.7376 29.5728 58.0742 33.8908 61.254C34.07 61.5923 34.0165 61.9403 33.8088 62.2657C33.5995 62.5936 33.2329 62.8834 32.8283 63.0489C32.4237 63.2145 31.9859 63.2548 31.631 63.1134C31.2761 62.972 30.986 62.6554 30.8634 62.045L30.8576 62.0138L30.8361 61.9884C27.3187 57.8595 24.4475 53.1954 23.0802 48.0958V48.0938C22.9445 47.5775 22.7423 47.2974 22.5002 47.1563C22.2577 47.015 22.001 47.0197 21.7795 47.0079C21.5579 46.9961 21.3781 46.9728 21.2209 46.8282C21.0637 46.6836 20.9141 46.3923 20.8224 45.8009L20.8185 45.7853L20.8127 45.7716C19.0276 41.5428 17.9829 37.0834 16.9279 32.6407ZM71.5627 35.6563C71.4626 35.6534 71.3739 35.6664 71.3009 35.6954C69.4524 36.432 71.1006 40.7846 73.5451 40.1329C77.263 39.1418 73.0635 35.6997 71.5627 35.6563ZM18.8791 45.0782C19.467 46.6701 20.1955 48.2081 21.4181 49.5313C21.4489 52.0439 22.9708 54.626 24.3654 57.0353L24.3674 57.0372L24.3693 57.0411C25.8092 59.2417 27.0419 61.9907 29.8283 63.1407C30.377 63.4389 30.6585 63.7363 30.7599 63.9649C30.8613 64.1935 30.8099 64.3424 30.672 64.4493C30.3962 64.6632 29.6549 64.632 29.0216 63.8712L29.0138 63.8634L29.0041 63.8556C26.7998 62.0594 25.2332 59.7707 23.9748 57.3243L23.9728 57.3224L23.9709 57.3185C22.2944 54.379 21.005 51.2718 20.1681 48.0372L20.1623 48.0138L20.1466 47.9923C19.5788 47.2444 19.2126 46.1923 18.8791 45.0782ZM11.5197 56.5099C11.396 56.5245 11.2823 56.6082 11.2131 56.7325C11.1438 56.8568 11.1046 57.0201 11.0881 57.2403L11.0861 57.2794L11.1056 57.3146C12.2391 59.2424 13.7226 60.997 15.1056 62.7833L15.1076 62.7853L15.1095 62.7892C16.8338 64.7584 18.3074 66.925 20.549 68.5841C21.8774 69.6969 22.9858 70.9345 24.4103 72.0138C24.4127 72.0161 24.4157 72.0173 24.4181 72.0196C24.4196 72.0208 24.4205 72.0224 24.422 72.0235C25.6178 73.1682 26.9156 74.0712 28.6271 74.5841C28.6284 74.5846 28.6297 74.5835 28.631 74.5841C29.3266 74.8887 30.0902 74.6853 30.5216 74.2696C30.7378 74.0614 30.8752 73.7916 30.8556 73.504C30.8361 73.2164 30.6579 72.9304 30.3068 72.6935L30.2345 72.6446L30.1642 72.6954C29.608 73.0912 29.041 73.101 28.4767 72.9317C27.9124 72.7625 27.3616 72.4055 26.8888 72.0724L26.881 72.0665L26.8713 72.0626C25.5555 71.4169 24.8975 70.3277 23.6662 69.4903C22.4352 68.2682 21.1976 67.0414 19.9455 65.8438L19.9435 65.8419C19.9402 65.8387 19.9372 65.8353 19.9338 65.8321C18.9454 64.6072 17.4277 63.6102 16.7287 62.3888L16.7209 62.3751L16.7111 62.3653C15.4865 61.0901 14.7629 59.5209 13.3263 58.3243C13.1952 58.0771 12.9046 57.6306 12.5724 57.2364C12.4049 57.0377 12.2271 56.8555 12.0529 56.7208C11.8787 56.5861 11.7053 56.488 11.5197 56.5099ZM22.9845 61.3653C23.3602 61.7632 23.3841 61.8903 24.2795 62.1915L24.2931 62.1974L24.3088 62.1993C24.6855 62.2334 25.0786 62.3345 25.3615 62.5489C25.6381 62.7586 25.8098 63.0784 25.7951 63.5841C25.6149 63.9319 25.4439 64.1069 25.3224 64.1427C25.195 64.1802 25.0726 64.1248 24.9201 63.9688C24.615 63.657 24.3055 62.9857 24.0431 62.4532L24.0334 62.4356L24.0197 62.422C23.7784 62.1743 23.5939 62.0262 23.4494 61.9005C23.3049 61.7748 23.2029 61.6736 23.0978 61.5021L23.0861 61.4825L23.0685 61.4688C23.0433 61.4491 23.0101 61.3868 22.9845 61.3653Z"
     fill="#1185C2"
     id="path2" />
  <path
     d="M43.5199 89.0001C42.7999 89.0001 42.4399 88.6401 42.4399 87.9201C42.4399 87.2001 42.7999 86.84 43.5199 86.84C48.3199 86.84 51.6199 86.4801 53.4199 85.7601C54.2599 85.4241 54.6799 85.0761 54.6799 84.7161C54.6799 84.3561 54.3799 84.0321 53.7799 83.7441C53.2039 83.4561 52.2199 83.0841 50.8279 82.6281C49.4599 82.1721 48.4159 81.7881 47.6959 81.4761C44.1919 80.0121 42.4399 77.7921 42.4399 74.8161C42.4399 72.8721 43.2799 71.2401 44.9599 69.9201C46.6399 68.5761 48.6559 67.9041 51.0079 67.9041C52.3039 67.9041 53.3839 68.2881 54.2479 69.0561C55.1359 69.8241 55.5799 70.7481 55.5799 71.8281C55.5799 72.9081 55.1599 73.8681 54.3199 74.7081C53.4799 75.5481 52.9039 75.9681 52.5919 75.9681C51.8719 75.9681 51.5119 75.6081 51.5119 74.8881C51.5119 74.5761 51.8239 74.1081 52.4479 73.4841C53.0959 72.8361 53.4199 72.3441 53.4199 72.0081C53.4199 71.4321 53.1919 70.964 52.7359 70.604C52.3039 70.244 51.7399 70.0641 51.0439 70.0641C49.2679 70.0641 47.7439 70.5201 46.4719 71.4321C45.2239 72.3201 44.5999 73.4001 44.5999 74.6721C44.5999 75.9441 44.9479 76.9401 45.6439 77.6601C46.3639 78.3801 47.1679 78.9321 48.0559 79.3161C48.9679 79.6761 49.8799 80.0121 50.7919 80.3241C51.7039 80.6121 52.4599 80.8761 53.0599 81.1161C53.6839 81.3321 54.3079 81.6081 54.9319 81.9441C56.2039 82.6401 56.8399 83.5521 56.8399 84.6801C56.8399 86.1441 55.7839 87.2361 53.6719 87.9561C51.5839 88.6521 48.1999 89.0001 43.5199 89.0001ZM79.5368 84.0321C80.9768 82.6401 81.6968 81.1761 81.6968 79.6401C81.6968 79.2561 81.5528 78.9201 81.2648 78.6321C80.9768 78.3441 80.6048 78.2001 80.1488 78.2001C79.6928 78.2001 79.2968 78.404 78.9608 78.812C78.6248 79.22 78.4568 79.7361 78.4568 80.3601C78.4568 81.7761 78.8168 83.0001 79.5368 84.0321ZM66.9728 74.9601L66.9368 76.0401C66.9368 79.1601 67.3088 81.6561 68.0528 83.5281C68.9408 85.7601 70.7288 86.864 73.4168 86.84C74.8328 86.84 76.3088 86.3481 77.8448 85.3641C76.8128 83.9241 76.2968 82.2561 76.2968 80.3601C76.2968 78.9921 76.6928 77.9361 77.4848 77.1921C78.2768 76.4241 79.1768 76.0401 80.1848 76.0401C81.1928 76.0401 82.0568 76.4001 82.7768 77.1201C83.4968 77.8401 83.8568 78.6801 83.8568 79.6401C83.8568 81.7281 82.9328 83.6961 81.0848 85.5441C82.0208 86.1681 83.0048 86.4801 84.0368 86.4801C85.0928 86.4801 85.9808 86.3601 86.7008 86.1201C87.4208 85.8801 87.8168 85.7601 87.8888 85.7601C88.6088 85.7601 88.9688 86.1201 88.9688 86.84C88.9688 87.368 88.6088 87.7521 87.8888 87.9921C86.5928 88.424 85.2128 88.6401 83.7488 88.6401C82.2848 88.6401 80.8208 88.0761 79.3568 86.9481C77.4128 88.3161 75.4328 89.0001 73.4168 89.0001C68.5688 89.0001 65.7608 86.0241 64.9928 80.0721C64.8488 78.8721 64.7768 77.5281 64.7768 76.0401V75.1401C64.2488 75.2121 63.8888 75.2481 63.6968 75.2481C62.9768 75.2481 62.6168 74.8881 62.6168 74.1681C62.6168 73.9041 62.7128 73.6761 62.9048 73.4841C63.0968 73.2681 63.2768 73.1481 63.4448 73.1241C63.6368 73.1001 63.8048 73.0761 63.9488 73.0521C64.1168 73.0281 64.2728 73.0041 64.4168 72.9801C64.5848 72.9561 64.7528 72.9321 64.9208 72.9081C65.0648 70.9881 65.1368 69.7761 65.1368 69.2721C65.1368 68.3601 65.4968 67.9041 66.2168 67.9041C66.9368 67.9041 67.2968 68.2641 67.2968 68.9841C67.2968 69.6081 67.2248 70.8801 67.0808 72.8001C68.7608 72.7521 70.2728 72.7281 71.6168 72.7281C72.3368 72.7281 72.6968 73.0881 72.6968 73.8081C72.6968 74.5281 72.3368 74.8881 71.6168 74.8881C69.2408 74.8881 67.6928 74.9121 66.9728 74.9601ZM111.048 83.6001C110.112 83.5761 109.284 83.4081 108.564 83.0961C107.892 82.8081 107.388 82.4841 107.052 82.1241C106.212 81.1881 105.564 80.7201 105.108 80.7201C104.34 80.7201 103.86 81.0801 103.668 81.8001C103.188 84.0561 102.624 85.736 101.976 86.84C101.136 88.2801 100.092 89.0001 98.844 89.0001C97.092 89.0001 95.628 88.0881 94.452 86.2641C93.396 84.6321 92.46 82.6161 91.644 80.2161C91.02 78.3921 90.708 77.3601 90.708 77.1201C90.708 76.4001 91.068 76.0401 91.788 76.0401C92.124 76.0401 92.352 76.1121 92.472 76.2561C92.616 76.4001 92.76 76.6761 92.904 77.0841C94.104 80.7081 94.992 83.048 95.568 84.104C96.552 85.928 97.644 86.84 98.844 86.84C99.876 86.84 100.788 84.9921 101.58 81.2961C102.06 79.4721 103.224 78.5601 105.072 78.5601C105.744 78.5601 106.32 78.7041 106.8 78.9921C107.28 79.2801 107.64 79.6041 107.88 79.9641C108.144 80.3001 108.528 80.6241 109.032 80.9361C109.536 81.2241 110.148 81.3921 110.868 81.4401C111.012 76.8801 112.572 74.6001 115.548 74.6001C116.916 74.6001 117.972 74.9961 118.716 75.7881C119.484 76.5801 119.868 77.5041 119.868 78.5601C119.868 79.6161 119.532 80.5881 118.86 81.4761C118.02 82.6041 116.16 83.2881 113.28 83.5281C113.616 84.4881 114.204 85.2801 115.044 85.9041C115.908 86.5281 116.676 86.84 117.348 86.84C119.004 86.84 120.66 86.5641 122.316 86.0121C122.82 85.8441 123.108 85.7601 123.18 85.7601C123.9 85.7601 124.26 86.1201 124.26 86.84C124.26 87.368 123.9 87.7521 123.18 87.9921C121.164 88.6641 119.22 89.0001 117.348 89.0001C116.196 89.0001 114.948 88.4961 113.604 87.4881C112.284 86.4801 111.432 85.1841 111.048 83.6001ZM113.028 81.368C115.14 81.224 116.484 80.8401 117.06 80.2161C117.492 79.7361 117.708 79.1841 117.708 78.5601C117.708 77.3601 116.988 76.7601 115.548 76.7601C113.94 76.7601 113.1 78.296 113.028 81.368ZM143.446 85.0401C143.086 85.0401 142.834 84.9681 142.69 84.8241C142.138 84.2241 141.862 81.896 141.862 77.84C141.862 75.2961 142.102 73.1601 142.582 71.4321C142.774 70.8321 143.134 70.2321 143.662 69.6321C144.694 68.4801 146.374 67.9041 148.702 67.9041C150.574 67.9041 152.302 68.6121 153.886 70.0281C155.47 71.4201 156.262 72.9201 156.262 74.5281C156.262 77.0961 155.374 79.3161 153.598 81.1881C152.302 82.5321 150.742 83.8761 148.918 85.2201C147.094 86.5641 145.99 87.4041 145.606 87.7401C145.222 88.1001 144.958 88.3521 144.814 88.4961L144.49 88.8201C144.202 89.1081 143.854 89.2521 143.446 89.2521C142.726 89.2521 142.366 88.8801 142.366 88.1361C142.366 87.6561 143.89 86.2641 146.938 83.9601C148.474 82.8081 149.674 81.8721 150.538 81.1521C151.426 80.4081 152.242 79.4481 152.986 78.2721C153.73 77.0961 154.102 75.9321 154.102 74.7801C154.102 73.6041 153.502 72.5241 152.302 71.5401C151.102 70.5561 149.962 70.0641 148.882 70.0641C147.826 70.0641 147.034 70.1601 146.506 70.3521C145.474 70.7121 144.838 71.3601 144.598 72.2961C144.214 73.7601 144.022 75.6921 144.022 78.0921C144.022 80.4921 144.166 82.2681 144.454 83.4201C144.502 83.7081 144.526 83.8881 144.526 83.9601C144.526 84.6801 144.166 85.0401 143.446 85.0401ZM163.119 86.2641C163.503 86.2641 163.899 86.4321 164.307 86.7681C164.715 87.1041 164.919 87.4641 164.919 87.8481C164.919 88.2321 164.751 88.5201 164.415 88.7121C164.103 88.9041 163.755 89.0001 163.371 89.0001C162.987 89.0001 162.663 88.8321 162.399 88.4961C162.159 88.1361 162.039 87.7521 162.039 87.3441C162.039 86.6241 162.399 86.2641 163.119 86.2641ZM190.292 71.0001L190.148 69.0201C190.148 68.2761 190.508 67.9041 191.228 67.9041C191.876 67.9041 192.236 68.2641 192.308 68.9841C192.404 69.5601 192.452 70.3041 192.452 71.2161C192.452 72.1281 192.308 74.4081 192.02 78.0561C191.732 81.6801 191.588 83.9361 191.588 84.8241C191.588 85.6881 191.708 86.2401 191.948 86.4801C192.212 86.7201 192.62 86.84 193.172 86.84C197.132 86.84 199.94 86.5641 201.596 86.0121C202.1 85.8441 202.388 85.7601 202.46 85.7601C203.18 85.7601 203.54 86.1201 203.54 86.84C203.54 87.368 203.18 87.7521 202.46 87.9921C200.444 88.6641 197.348 89.0001 193.172 89.0001C190.676 89.0001 189.428 87.6801 189.428 85.0401C189.428 84.0081 189.572 81.6561 189.86 77.9841C190.148 74.3121 190.292 71.9841 190.292 71.0001ZM218.602 86.048C218.602 86.048 218.986 85.9521 219.754 85.7601C220.474 85.7601 220.834 86.1201 220.834 86.84C220.834 87.368 220.474 87.7521 219.754 87.9921C219.322 88.136 218.89 88.2081 218.458 88.2081C218.05 88.2081 217.654 88.1121 217.27 87.9201C216.886 87.7281 216.586 87.4401 216.37 87.0561C216.01 86.4321 215.746 85.7601 215.578 85.0401L215.434 84.4281C215.026 85.1241 214.03 85.9401 212.446 86.8761C210.886 87.8121 209.218 88.2801 207.442 88.2801C206.482 88.2801 205.642 87.92 204.922 87.2001C204.202 86.4801 203.842 85.6401 203.842 84.6801C203.842 82.3521 204.802 80.3361 206.722 78.6321C208.642 76.9041 210.586 76.0401 212.554 76.0401C213.634 76.0401 214.558 76.2441 215.326 76.6521C216.118 77.0361 216.514 77.432 216.514 77.84C216.514 78.5601 216.154 78.9201 215.434 78.9201C215.29 78.9201 214.942 78.8001 214.39 78.5601C213.838 78.3201 213.226 78.2001 212.554 78.2001C211.258 78.2001 209.842 78.8361 208.306 80.1081C206.77 81.3561 206.002 82.8801 206.002 84.6801C206.002 85.0401 206.146 85.3761 206.434 85.6881C206.746 85.9761 207.082 86.1201 207.442 86.1201C208.858 86.1201 210.178 85.7481 211.402 85.0041C212.626 84.2361 213.406 83.6121 213.742 83.1321C214.078 82.6281 214.354 82.1721 214.57 81.7641C214.786 81.3561 214.942 81.0921 215.038 80.9721C215.158 80.8281 215.398 80.7561 215.758 80.7561C216.118 80.7561 216.394 80.8881 216.586 81.1521C216.778 81.4161 216.958 81.8361 217.126 82.4121C217.294 82.9641 217.462 83.588 217.63 84.284C217.798 84.98 217.942 85.4481 218.062 85.6881C218.206 85.9281 218.386 86.048 218.602 86.048ZM222.219 78.2001C221.499 78.2001 221.139 77.8401 221.139 77.1201C221.139 76.4001 221.499 76.0401 222.219 76.0401C226.011 76.0401 228.639 76.3281 230.103 76.9041C231.567 77.4801 232.299 78.3921 232.299 79.6401C232.299 80.2161 231.939 81.3561 231.219 83.0601C230.499 84.7401 230.139 86.0361 230.139 86.9481C230.139 87.8361 230.463 88.8081 231.111 89.8641C231.783 90.9441 232.443 92.0001 233.091 93.0321C233.763 94.0881 234.099 95.0481 234.099 95.9121C234.099 97.2561 233.631 98.3121 232.695 99.0801C231.783 99.8481 230.523 100.232 228.915 100.232C227.331 100.232 225.999 99.8001 224.919 98.9361C223.839 98.0961 223.299 97.1001 223.299 95.9481C223.299 94.7961 223.743 93.8841 224.631 93.2121C225.543 92.5641 226.299 92.2401 226.899 92.2401C227.619 92.2401 227.979 92.6001 227.979 93.3201C227.979 93.5601 227.547 93.9441 226.683 94.4721C226.563 94.5441 226.479 94.5921 226.431 94.6161C226.383 94.6401 226.311 94.6881 226.215 94.7601C226.119 94.8321 226.047 94.8801 225.999 94.9041C225.975 94.9521 225.915 95.0121 225.819 95.0841C225.747 95.1561 225.699 95.2161 225.675 95.2641C225.651 95.3121 225.615 95.3721 225.567 95.4441C225.495 95.5401 225.459 95.6961 225.459 95.9121C225.459 96.4881 225.771 96.9921 226.395 97.4241C227.043 97.8561 227.931 98.0721 229.059 98.0721C230.979 98.0721 231.939 97.3641 231.939 95.9481C231.939 95.4441 231.603 94.6881 230.931 93.6801C230.283 92.6961 229.623 91.5801 228.951 90.3321C228.303 89.1081 227.979 87.944 227.979 86.84C227.979 85.712 228.339 84.2841 229.059 82.5561C229.779 80.8281 230.139 79.8561 230.139 79.6401C230.139 78.6801 227.499 78.2001 222.219 78.2001ZM251.755 86.048C251.755 86.048 252.139 85.9521 252.907 85.7601C253.627 85.7601 253.987 86.1201 253.987 86.84C253.987 87.368 253.627 87.7521 252.907 87.9921C252.475 88.136 252.043 88.2081 251.611 88.2081C251.203 88.2081 250.807 88.1121 250.423 87.9201C250.039 87.7281 249.739 87.4401 249.523 87.0561C249.163 86.4321 248.899 85.7601 248.731 85.0401L248.587 84.4281C248.179 85.1241 247.183 85.9401 245.599 86.8761C244.039 87.8121 242.371 88.2801 240.595 88.2801C239.635 88.2801 238.795 87.92 238.075 87.2001C237.355 86.4801 236.995 85.6401 236.995 84.6801C236.995 82.3521 237.955 80.3361 239.875 78.6321C241.795 76.9041 243.739 76.0401 245.707 76.0401C246.787 76.0401 247.711 76.2441 248.479 76.6521C249.271 77.0361 249.667 77.432 249.667 77.84C249.667 78.5601 249.307 78.9201 248.587 78.9201C248.443 78.9201 248.095 78.8001 247.543 78.5601C246.991 78.3201 246.379 78.2001 245.707 78.2001C244.411 78.2001 242.995 78.8361 241.459 80.1081C239.923 81.3561 239.155 82.8801 239.155 84.6801C239.155 85.0401 239.299 85.3761 239.587 85.6881C239.899 85.9761 240.235 86.1201 240.595 86.1201C242.011 86.1201 243.331 85.7481 244.555 85.0041C245.779 84.2361 246.559 83.6121 246.895 83.1321C247.231 82.6281 247.507 82.1721 247.723 81.7641C247.939 81.3561 248.095 81.0921 248.191 80.9721C248.311 80.8281 248.551 80.7561 248.911 80.7561C249.271 80.7561 249.547 80.8881 249.739 81.1521C249.931 81.4161 250.111 81.8361 250.279 82.4121C250.447 82.9641 250.615 83.588 250.783 84.284C250.951 84.98 251.095 85.4481 251.215 85.6881C251.359 85.9281 251.539 86.048 251.755 86.048ZM256.452 81.4401L256.812 82.8801C256.812 83.6001 256.452 83.9601 255.732 83.9601C255.42 83.9601 255.096 83.7081 254.76 83.2041C254.448 82.7001 254.292 82.088 254.292 81.368C254.292 80.648 254.7 79.9281 255.516 79.2081C256.332 78.4881 257.292 77.9121 258.396 77.4801C260.844 76.5201 262.836 76.0401 264.372 76.0401C265.356 76.0401 266.136 76.3401 266.712 76.9401C267.312 77.5161 267.612 78.3921 267.612 79.5681C267.612 80.7441 267.684 81.8361 267.828 82.8441C268.14 84.7881 268.572 85.7601 269.124 85.7601C269.484 85.7601 269.88 85.5801 270.312 85.2201C270.744 84.8601 272.148 83.5881 274.524 81.4041C274.692 81.1881 274.908 81.0801 275.172 81.0801C275.892 81.0801 276.252 81.4401 276.252 82.1601L275.892 83.9961C275.892 84.9081 276.276 85.6161 277.044 86.1201C277.836 86.6001 278.808 86.84 279.96 86.84C281.112 86.84 282.396 86.4681 283.812 85.7241C285.252 84.9801 285.972 84.0201 285.972 82.8441C285.972 81.6681 285.576 80.7801 284.784 80.1801C284.016 79.5801 283.092 79.2801 282.012 79.2801C281.436 79.2801 280.848 79.4601 280.248 79.8201C279.672 80.1801 279.3 80.3601 279.132 80.3601C278.412 80.3601 278.052 80.0001 278.052 79.2801C278.052 78.8241 278.46 78.3561 279.276 77.8761C280.116 77.3721 281.028 77.1201 282.012 77.1201C283.716 77.1201 285.156 77.6241 286.332 78.6321C287.532 79.6401 288.132 81.0561 288.132 82.8801C288.132 84.128 287.652 85.2441 286.692 86.2281C285.732 87.212 284.628 87.9201 283.38 88.3521C282.156 88.784 280.896 89.0001 279.6 89.0001C278.304 89.0001 277.08 88.6401 275.928 87.9201C274.776 87.1761 274.08 86.1801 273.84 84.9321C273.696 85.0521 273.444 85.3041 273.084 85.6881C272.724 86.0721 272.436 86.3601 272.22 86.5521C272.004 86.7201 271.716 86.9361 271.356 87.2001C270.708 87.68 269.964 87.9201 269.124 87.9201C267.828 87.9201 266.892 87.2241 266.316 85.8321C265.74 84.4161 265.452 82.2321 265.452 79.2801C265.452 78.5601 265.104 78.2001 264.408 78.2001C263.304 78.2001 262.104 78.4281 260.808 78.8841C259.512 79.3161 258.456 79.7841 257.64 80.2881C256.848 80.7921 256.452 81.1761 256.452 81.4401Z"
     fill="#042A2B"
     id="path4" />
</svg>
